REM MD5 5835e7f867618210917a56963cbe6c43
FILE "SuperLite 1500 Series - Card II (Japan).bin" BINARY
  TRACK 01 MODE2/2352
    INDEX 01 00:00:00
  TRACK 02 AUDIO
    INDEX 00 00:12:11
    INDEX 01 00:14:11
  TRACK 03 AUDIO
    INDEX 00 03:24:17
    INDEX 01 03:26:17
  TRACK 04 AUDIO
    INDEX 00 06:51:15
    INDEX 01 06:53:15
  TRACK 05 AUDIO
    INDEX 00 10:24:46
    INDEX 01 10:26:46
  TRACK 06 AUDIO
    INDEX 00 15:51:56
    INDEX 01 15:53:56
REM LEADOUT 19:03:62
